<?xml version="1.0" standalone="no"?>
<!DOCTYPE svg PUBLIC "-//W3C//DTD SVG 20010904//EN"
 "http://www.w3.org/TR/2001/REC-SVG-20010904/DTD/svg10.dtd">
<svg version="1.0" xmlns="http://www.w3.org/2000/svg"
 width="500.000000pt" height="500.000000pt" viewBox="0 0 500.000000 500.000000"
 preserveAspectRatio="xMidYMid meet">
<metadata>
Created by potrace 1.11, written by Peter Selinger 2001-2013
</metadata>
<g transform="translate(0.000000,500.000000) scale(0.100000,-0.100000)"
fill="#000000" stroke="none">
<path d="M0 2500 l0 -2500 2500 0 2500 0 0 2500 0 2500 -2500 0 -2500 0 0
-2500z m4515 1505 c154 -96 185 -331 63 -470 -59 -67 -108 -89 -193 -90 -59 0
-78 5 -123 29 -55 31 -107 91 -133 156 -8 20 -14 69 -14 115 0 94 24 154 88
218 59 59 108 78 193 75 58 -3 80 -9 119 -33z m-1012 -126 c21 -11 350 -218
637 -402 69 -44 137 -91 152 -105 49 -45 70 -143 48 -222 -6 -21 -78 -121
-175 -245 l-166 -210 41 -3 c24 -2 106 2 184 8 77 6 197 13 266 16 120 6 126
5 160 -18 19 -13 45 -41 58 -63 22 -37 23 -48 18 -155 -7 -161 -55 -846 -62
-898 -8 -52 -38 -99 -83 -129 -86 -58 -212 2 -235 112 -3 17 3 158 14 315 11
157 23 327 27 378 l6 92 -104 -6 c-57 -4 -106 -8 -108 -10 -1 -1 8 -38 22 -81
42 -127 51 -190 51 -333 -1 -147 -21 -253 -69 -372 -27 -67 -90 -175 -128
-221 l-24 -28 -60 63 c-33 35 -81 86 -107 115 l-47 51 34 49 c63 87 95 183
104 304 25 362 -241 657 -575 636 -66 -4 -96 -11 -155 -39 -39 -19 -93 -51
-120 -71 -26 -21 -49 -37 -51 -37 -1 0 -49 51 -104 114 l-102 114 56 51 c93
85 208 147 329 175 47 12 55 19 138 122 85 104 278 350 304 385 11 15 2 24
-80 76 -50 33 -103 65 -115 72 -23 12 -32 5 -176 -137 -169 -167 -200 -186
-275 -163 -67 19 -121 102 -121 181 1 58 39 108 231 299 107 107 208 202 224
212 34 21 105 25 138 8z m-609 -1533 l79 -86 -32 -70 c-33 -71 -60 -190 -61
-267 -1 -149 72 -326 179 -432 173 -172 395 -207 601 -94 l65 35 88 -93 c48
-52 95 -105 105 -118 15 -23 15 -24 -11 -45 -46 -37 -134 -87 -197 -113 -90
-36 -183 -53 -296 -53 -127 0 -226 24 -354 87 -82 41 -108 60 -195 147 -139
140 -214 277 -256 467 -28 127 -23 365 10 478 25 84 74 194 116 261 l28 44 26
-31 c14 -17 62 -69 105 -117z"/>
</g>
</svg>
